<svg id="Layer_1" data-name="Layer 1" xmlns="http://www.w3.org/2000/svg" width="100" height="47" viewBox="0 0 100 47"><path d="M97.5,3.5a57.14,57.14,0,0,1-8.16,12.2,60.78,60.78,0,0,1-11,10,50.56,50.56,0,0,1-13.43,6.86,48,48,0,0,1-15,2.44,49.93,49.93,0,0,1-15-2.37,50.28,50.28,0,0,1-13.48-6.76,58.61,58.61,0,0,1-11-10A53.91,53.91,0,0,1,2.5,3.5a77.57,77.57,0,0,0,9.73,10.63,67.65,67.65,0,0,0,5.48,4.54,62.8,62.8,0,0,0,5.85,3.92,54.61,54.61,0,0,0,12.75,5.5c1.1.33,2.23.57,3.34.84s2.26.46,3.41.57a49.28,49.28,0,0,0,6.87.5,47.77,47.77,0,0,0,6.86-.5c1.14-.12,2.26-.39,3.39-.59s2.24-.52,3.34-.87a55.54,55.54,0,0,0,12.72-5.6,68.06,68.06,0,0,0,5.86-3.93Q85,16.4,87.6,14A85,85,0,0,0,97.5,3.5Z" fill="lime"/><polygon points="52.5 33 50 47 47.5 33 47.05 30.5 52.95 30.5 52.5 33" fill="lime"/><polygon points="80.53 23.99 91 38 76.99 27.52 74.97 26.01 79.01 21.97 80.53 23.99" fill="lime"/><polygon points="25.01 28.52 12 38 21.48 24.99 22.96 22.94 27.06 27.04 25.01 28.52" fill="lime"/></svg>