<svg id="Layer_1" data-name="Layer 1" xmlns="http://www.w3.org/2000/svg" width="100" height="56" viewBox="0 0 100 56"><circle cx="50" cy="33" r="20.5" fill="none" stroke="lime" stroke-miterlimit="10" stroke-width="4"/><path d="M2.5,31.5a57.14,57.14,0,0,1,8.16-12.2,60.78,60.78,0,0,1,11-10A50.56,50.56,0,0,1,35.07,2.44,48,48,0,0,1,50.08,0,49.31,49.31,0,0,1,78.56,9.13a58.61,58.61,0,0,1,11,10,53.91,53.91,0,0,1,8,12.33,77.57,77.57,0,0,0-9.73-10.63,67.65,67.65,0,0,0-5.48-4.54,62.8,62.8,0,0,0-5.85-3.92,54.61,54.61,0,0,0-12.75-5.5c-1.1-.33-2.23-.57-3.34-.84s-2.26-.46-3.41-.57A49.28,49.28,0,0,0,50.07,5a47.77,47.77,0,0,0-6.86.5c-1.14.12-2.26.39-3.39.59s-2.24.52-3.34.87a55.54,55.54,0,0,0-12.72,5.6,68.06,68.06,0,0,0-5.86,3.93Q15.05,18.6,12.4,21A85,85,0,0,0,2.5,31.5Z" fill="lime"/><circle cx="50" cy="33" r="10" fill="lime"/></svg>