<svg id="Layer_1" data-name="Layer 1" xmlns="http://www.w3.org/2000/svg" width="500" height="265" viewBox="0 0 500 265"><rect width="62.31" height="90"/><rect x="438" y="175" width="62.31" height="90"/><path d="M457.31,117v88H397V117h60.31m1-1H396v90h62.31V116Z"/><path d="M426.31,131v88H366V131h60.31m1-1H365v90h62.31V130Z"/><path d="M318.31,67v88H258V67h60.31m1-1H257v90h62.31V66Z"/><path d="M413.31,1V89H353V1h60.31m1-1H352V90h62.31V0Z"/><rect x="118" y="103" width="62.31" height="90"/><path d="M129.31,149v88H69V149h60.31m1-1H68v90h62.31V148Z"/></svg>