<svg id="Layer_1" data-name="Layer 1" xmlns="http://www.w3.org/2000/svg" width="500" height="265" viewBox="0 0 500 265"><rect y="175" width="62.31" height="90"/><path d="M499.31,1V89H439V1h60.31m1-1H438V90h62.31V0Z"/><path d="M325.31,126v88H265V126h60.31m1-1H264v90h62.31V125Z"/><path d="M160.31,122v88H100V122h60.31m1-1H99v90h62.31V121Z"/><rect x="250" y="58" width="62.31" height="90"/><path d="M349.31,22v88H289V22h60.31m1-1H288v90h62.31V21Z"/><rect x="118" y="103" width="62.31" height="90"/><path d="M129.31,149v88H69V149h60.31m1-1H68v90h62.31V148Z"/></svg>