<svg id="Layer_1" data-name="Layer 1" xmlns="http://www.w3.org/2000/svg" width="500" height="265" viewBox="0 0 500 265"><rect width="62.31" height="90" fill="lime"/><rect x="438" y="175" width="62.31" height="90" fill="lime"/><path d="M457.31,117v88H397V117h60.31m1-1H396v90h62.31V116Z" fill="lime"/><path d="M426.31,131v88H366V131h60.31m1-1H365v90h62.31V130Z" fill="lime"/><rect x="252" y="68" width="62.31" height="90" fill="lime"/><path d="M366.31,16v88H306V16h60.31m1-1H305v90h62.31V15Z" fill="lime"/><path d="M474.31,1V89H414V1h60.31m1-1H413V90h62.31V0Z" fill="lime"/><path d="M179.31,104v88H119V104h60.31m1-1H118v90h62.31V103Z" fill="lime"/><path d="M129.31,149v88H69V149h60.31m1-1H68v90h62.31V148Z" fill="lime"/></svg>