<svg id="Layer_1" data-name="Layer 1" xmlns="http://www.w3.org/2000/svg" width="500" height="265" viewBox="0 0 500 265"><rect x="438" width="62.31" height="90"/><path d="M61.31,176v88H1V176H61.31m1-1H0v90H62.31V175Z"/><rect x="273" y="45" width="62.31" height="90"/><path d="M413.31,149v88H353V149h60.31m1-1H352v90h62.31V148Z"/><path d="M195.31,89v88H135V89h60.31m1-1H134v90h62.31V88Z"/><rect x="314" y="80" width="62.31" height="90"/><rect x="87" y="161" width="62.31" height="90"/><path d="M102.31,36v88H42V36h60.31m1-1H41v90h62.31V35Z"/></svg>