<svg id="Layer_1" data-name="Layer 1" xmlns="http://www.w3.org/2000/svg" width="500" height="265" viewBox="0 0 500 265"><rect x="44" width="62.31" height="90"/><rect x="438" y="175" width="62.31" height="90"/><path d="M457.31,117v88H397V117h60.31m1-1H396v90h62.31V116Z"/><path d="M403.31,59v88H343V59h60.31m1-1H342v90h62.31V58Z"/><rect x="132" y="130" width="62.31" height="90"/><path d="M325.31,31v88H265V31h60.31m1-1H264v90h62.31V30Z"/><path d="M61.31,72v88H1V72H61.31m1-1H0v90H62.31V71Z"/><path d="M92.31,86v88H32V86H92.31m1-1H31v90H93.31V85Z"/></svg>